<mxfile host="app.diagrams.net" agent="Mozilla/5.0 (Windows NT 10.0; Win64; x64) AppleWebKit/537.36 (KHTML, like Gecko) Chrome/131.0.0.0 Safari/537.36" version="26.0.6">
  <diagram name="Page-1" id="l_A1BoyRMLz5qFvwIhAc">
    <mxGraphModel dx="1434" dy="738" grid="1" gridSize="10" guides="1" tooltips="1" connect="1" arrows="1" fold="1" page="1" pageScale="1" pageWidth="827" pageHeight="1169" math="0" shadow="0">
      <root>
        <mxCell id="0" />
        <mxCell id="1" parent="0" />
        <mxCell id="9Sg4c4JGDe0HvogplE-y-10" style="edgeStyle=orthogonalEdgeStyle;rounded=0;orthogonalLoop=1;jettySize=auto;html=1;exitX=1;exitY=0.5;exitDx=0;exitDy=0;entryX=0;entryY=0.5;entryDx=0;entryDy=0;" edge="1" parent="1" source="9Sg4c4JGDe0HvogplE-y-1" target="9Sg4c4JGDe0HvogplE-y-2">
          <mxGeometry relative="1" as="geometry" />
        </mxCell>
        <mxCell id="9Sg4c4JGDe0HvogplE-y-11" style="edgeStyle=orthogonalEdgeStyle;rounded=0;orthogonalLoop=1;jettySize=auto;html=1;exitX=1;exitY=0.5;exitDx=0;exitDy=0;entryX=0;entryY=0.5;entryDx=0;entryDy=0;" edge="1" parent="1" source="9Sg4c4JGDe0HvogplE-y-1" target="9Sg4c4JGDe0HvogplE-y-7">
          <mxGeometry relative="1" as="geometry">
            <mxPoint x="280" y="240" as="targetPoint" />
            <Array as="points">
              <mxPoint x="281" y="140" />
              <mxPoint x="281" y="230" />
            </Array>
          </mxGeometry>
        </mxCell>
        <mxCell id="9Sg4c4JGDe0HvogplE-y-12" style="edgeStyle=orthogonalEdgeStyle;rounded=0;orthogonalLoop=1;jettySize=auto;html=1;exitX=1;exitY=0.5;exitDx=0;exitDy=0;entryX=0;entryY=0.5;entryDx=0;entryDy=0;" edge="1" parent="1" source="9Sg4c4JGDe0HvogplE-y-1" target="9Sg4c4JGDe0HvogplE-y-3">
          <mxGeometry relative="1" as="geometry">
            <mxPoint x="280" y="340" as="targetPoint" />
            <Array as="points">
              <mxPoint x="281" y="140" />
              <mxPoint x="281" y="330" />
            </Array>
          </mxGeometry>
        </mxCell>
        <mxCell id="9Sg4c4JGDe0HvogplE-y-13" style="edgeStyle=orthogonalEdgeStyle;rounded=0;orthogonalLoop=1;jettySize=auto;html=1;exitX=1;exitY=0.5;exitDx=0;exitDy=0;entryX=0;entryY=0.5;entryDx=0;entryDy=0;" edge="1" parent="1" source="9Sg4c4JGDe0HvogplE-y-1" target="9Sg4c4JGDe0HvogplE-y-4">
          <mxGeometry relative="1" as="geometry">
            <mxPoint x="280" y="420" as="targetPoint" />
            <Array as="points">
              <mxPoint x="281" y="140" />
              <mxPoint x="281" y="420" />
            </Array>
          </mxGeometry>
        </mxCell>
        <mxCell id="9Sg4c4JGDe0HvogplE-y-14" style="edgeStyle=orthogonalEdgeStyle;rounded=0;orthogonalLoop=1;jettySize=auto;html=1;exitX=1;exitY=0.5;exitDx=0;exitDy=0;entryX=0;entryY=0.5;entryDx=0;entryDy=0;" edge="1" parent="1" source="9Sg4c4JGDe0HvogplE-y-1" target="9Sg4c4JGDe0HvogplE-y-5">
          <mxGeometry relative="1" as="geometry">
            <mxPoint x="280" y="500" as="targetPoint" />
            <Array as="points">
              <mxPoint x="281" y="140" />
              <mxPoint x="281" y="500" />
            </Array>
          </mxGeometry>
        </mxCell>
        <mxCell id="9Sg4c4JGDe0HvogplE-y-15" style="edgeStyle=orthogonalEdgeStyle;rounded=0;orthogonalLoop=1;jettySize=auto;html=1;exitX=1;exitY=0.5;exitDx=0;exitDy=0;entryX=0;entryY=0.5;entryDx=0;entryDy=0;" edge="1" parent="1" source="9Sg4c4JGDe0HvogplE-y-1" target="9Sg4c4JGDe0HvogplE-y-8">
          <mxGeometry relative="1" as="geometry">
            <mxPoint x="280" y="580" as="targetPoint" />
            <Array as="points">
              <mxPoint x="281" y="140" />
              <mxPoint x="281" y="585" />
            </Array>
          </mxGeometry>
        </mxCell>
        <mxCell id="9Sg4c4JGDe0HvogplE-y-16" style="edgeStyle=orthogonalEdgeStyle;rounded=0;orthogonalLoop=1;jettySize=auto;html=1;exitX=1;exitY=0.5;exitDx=0;exitDy=0;entryX=0;entryY=0.5;entryDx=0;entryDy=0;" edge="1" parent="1" source="9Sg4c4JGDe0HvogplE-y-1" target="9Sg4c4JGDe0HvogplE-y-9">
          <mxGeometry relative="1" as="geometry">
            <mxPoint x="280" y="670" as="targetPoint" />
            <Array as="points">
              <mxPoint x="281" y="140" />
              <mxPoint x="281" y="670" />
            </Array>
          </mxGeometry>
        </mxCell>
        <mxCell id="9Sg4c4JGDe0HvogplE-y-1" value="Deplacer le penetrometre" style="rounded=0;whiteSpace=wrap;html=1;" vertex="1" parent="1">
          <mxGeometry x="130" y="110" width="120" height="60" as="geometry" />
        </mxCell>
        <mxCell id="9Sg4c4JGDe0HvogplE-y-2" value="Recevoir des donnés" style="rounded=0;whiteSpace=wrap;html=1;" vertex="1" parent="1">
          <mxGeometry x="320" y="110" width="120" height="60" as="geometry" />
        </mxCell>
        <mxCell id="9Sg4c4JGDe0HvogplE-y-3" value="Se géolocaliser" style="rounded=0;whiteSpace=wrap;html=1;" vertex="1" parent="1">
          <mxGeometry x="320" y="300" width="120" height="60" as="geometry" />
        </mxCell>
        <mxCell id="9Sg4c4JGDe0HvogplE-y-4" value="s&#39;orienter" style="rounded=0;whiteSpace=wrap;html=1;" vertex="1" parent="1">
          <mxGeometry x="320" y="390" width="120" height="60" as="geometry" />
        </mxCell>
        <mxCell id="9Sg4c4JGDe0HvogplE-y-5" value="Transmettre des données" style="rounded=0;whiteSpace=wrap;html=1;" vertex="1" parent="1">
          <mxGeometry x="320" y="470" width="120" height="60" as="geometry" />
        </mxCell>
        <mxCell id="9Sg4c4JGDe0HvogplE-y-7" value="Se déplacer en suivant une&lt;br/&gt;trajectoire" style="rounded=0;whiteSpace=wrap;html=1;" vertex="1" parent="1">
          <mxGeometry x="320" y="200" width="120" height="60" as="geometry" />
        </mxCell>
        <mxCell id="9Sg4c4JGDe0HvogplE-y-8" value="Éviter les obstacles&amp;nbsp;" style="rounded=0;whiteSpace=wrap;html=1;" vertex="1" parent="1">
          <mxGeometry x="320" y="555" width="120" height="60" as="geometry" />
        </mxCell>
        <mxCell id="9Sg4c4JGDe0HvogplE-y-9" value="Mesurer la valeur de&lt;br/&gt;pénétrométrie&amp;nbsp;" style="rounded=0;whiteSpace=wrap;html=1;" vertex="1" parent="1">
          <mxGeometry x="320" y="640" width="120" height="60" as="geometry" />
        </mxCell>
      </root>
    </mxGraphModel>
  </diagram>
</mxfile>
